<svg xmlns="http://www.w3.org/2000/svg" width="23" height="23" viewBox="0 0 23 23"><style>.st0{fill:#dc4e41}.st1{fill:#fff}</style><g id="G_x2B_"><path class="st0" d="M21 23h-19c-1.1 0-2-.9-2-2v-19c0-1.1.9-2 2-2h19c1.1 0 2 .9 2 2v19c0 1.1-.9 2-2 2z"/><path class="st1" d="M18.1 10.9h-1.4v-1.3h-1.1v1.4h-1.4v1h1.4v1.4h1.1v-1.4h1.4m-8.8-1.3v1.7h2.4c-.2 1-1.1 1.8-2.4 1.8-1.5 0-2.6-1.2-2.6-2.7s1.2-2.7 2.6-2.7c.7 0 1.2.2 1.7.7l1.2-1.2c-.8-.7-1.8-1.2-3-1.2-2.4 0-4.4 2-4.4 4.4s2 4.4 4.4 4.4c2.6 0 4.2-1.8 4.2-4.3 0-.3 0-.6-.1-.9h-4z"/></g></svg>