<svg xmlns="http://www.w3.org/2000/svg" width="23" height="23" viewBox="0 0 23 23"><style>.st0{fill:#1ab7ea}.st1{fill:#fff}</style><g id="vimeo"><path class="st0" d="M21 23h-19c-1.1 0-2-.9-2-2v-19c0-1.1.9-2 2-2h19c1.1 0 2 .9 2 2v19c0 1.1-.9 2-2 2z"/><path class="st1" d="M19.4 7.6c-.1 1.6-1.2 3.8-3.4 6.6-2.3 2.9-4.2 4.4-5.7 4.4-1 0-1.8-.9-2.5-2.7l-1.3-4.9c-.5-1.8-1-2.7-1.6-2.7-.1 0-.6.3-1.3.8l-.8-1c.8-.7 1.6-1.4 2.4-2.2 1.1-.9 1.9-1.4 2.5-1.5 1.3-.1 2.1.8 2.4 2.7.3 2 .5 3.3.7 3.8.4 1.7.8 2.5 1.2 2.5.3 0 .9-.5 1.6-1.6.7-1.1 1.1-1.9 1.1-2.5.1-1-.3-1.4-1.2-1.4-.4 0-.8.1-1.2.3.8-2.7 2.4-4 4.7-3.9 1.7 0 2.5 1.1 2.4 3.3z"/></g></svg>