<svg xmlns="http://www.w3.org/2000/svg" width="23" height="23" viewBox="0 0 23 23"><style>.st0{fill:#e9e9e9}.st1{fill:#fff}.st2{fill:#bd081c}</style><g id="Pinterest"><path class="st0" d="M21 23h-19c-1.1 0-2-.9-2-2v-19c0-1.1.9-2 2-2h19c1.1 0 2 .9 2 2v19c0 1.1-.9 2-2 2z"/><path class="st1" d="M20 11.5c0 4.7-3.8 8.5-8.5 8.5s-8.5-3.8-8.5-8.5 3.8-8.5 8.5-8.5 8.5 3.8 8.5 8.5"/><path class="st2" d="M11.5 3.8c-4.3 0-7.7 3.4-7.7 7.7 0 3.3 2 6 4.9 7.2-.1-.6-.1-1.5 0-2.2.1-.6.9-3.8.9-3.8s-.2-.5-.2-1.1c0-1.1.6-1.9 1.4-1.9.7 0 1 .5 1 1.1 0 .7-.4 1.6-.6 2.6-.2.8.4 1.4 1.1 1.4 1.4 0 2.4-1.4 2.4-3.5 0-1.8-1.3-3.1-3.2-3.1-2.3-.2-3.5 1.4-3.5 3.1 0 .7.3 1.4.6 1.8.1.1.1.1.1.2-.1.2-.2.8-.2.9 0 .1-.1.2-.3.1-1-.4-1.6-1.9-1.6-3 0-2.4 1.8-4.7 5.1-4.7 2.7 0 4.7 1.9 4.7 4.4 0 2.7-1.7 4.8-4 4.8-.8 0-1.5-.4-1.8-.9 0 0-.4 1.5-.5 1.8-.2.7-.6 1.5-1 2 .7.2 1.5.3 2.3.3 4.3 0 7.7-3.4 7.7-7.7.1-4.1-3.4-7.5-7.6-7.5z"/></g></svg>