<svg xmlns="http://www.w3.org/2000/svg" width="23" height="23" viewBox="0 0 23 23"><style>.st0{fill:#cc181e}.st1{fill:#fff}.st2{opacity:.12}</style><g id="YouTube"><path class="st0" d="M21 23h-19c-1.1 0-2-.9-2-2v-19c0-1.1.9-2 2-2h19c1.1 0 2 .9 2 2v19c0 1.1-.9 2-2 2z"/><path class="st1" d="M19 8.2s-.2-1.1-.6-1.5c-.6-.6-1.2-.6-1.5-.7-2.2-.2-5.4-.2-5.4-.2s-3.2 0-5.4.2c-.3 0-1 0-1.5.7-.5.5-.7 1.5-.7 1.5s-.2 1.2-.2 2.5v1.2c0 1.2.2 2.5.2 2.5s.2 1.1.6 1.5c.6.6 1.4.6 1.7.7 1.2.1 5.2.2 5.2.2s3.2 0 5.4-.2c.3 0 1 0 1.5-.7.5-.5.6-1.5.6-1.5s.2-1.2.2-2.5v-1.2c.1-1.2-.1-2.5-.1-2.5zm-9.1 5.1v-4.3l4.2 2.2-4.2 2.1z" id="Lozenge"/><path class="st2" d="M9.9 9l3.6 2.4.6-.2z"/></g></svg>