<svg xmlns="http://www.w3.org/2000/svg" width="23" height="23" viewBox="0 0 23 23"><style>.st0{fill:#37465d}.st1{fill:none;stroke:#fbed1f;stroke-width:4;stroke-miterlimit:10}.st2{opacity:.25}.st3{fill:#fff}.st4{opacity:.5;fill:#38465d}</style><g id="Tumblr"><path class="st0" d="M21 23h-19c-1.1 0-2-.9-2-2v-19c0-1.1.9-2 2-2h19c1.1 0 2 .9 2 2v19c0 1.1-.9 2-2 2z"/><path class="st2" d="M14.4 15.7c.2 0 .4 0 .7-.1v-3.8h2.8v-3.2h-1.7v1.8h-2.8v4.1c-.1 1.1.5 1.2 1 1.2zm.7-10.9h-1.7v2.4h1.7v-2.4zm2.5 12c-.3.2-.7.3-1.1.4l.3.9c-.5.7-1.8 1.2-3 1.2h-.1c-.8 0-1.5-.1-2.1-.4.7 1 1.9 1.9 3.8 1.9h.1c1.2 0 2.5-.5 3-1.2l-.9-2.8z"/><path class="st3" d="M13.1 19.6c1.7 0 3.3-.6 3.9-1.3l.1-.1-1-3.1h-2.5v-4.1s0-.1.1-.1h2.7s.1 0 .1-.1v-3.9s0-.1-.1-.1h-2.7s-.1 0-.1-.1v-3.7s0-.1-.1-.1h-4.7c-.4.1-.8.3-.8.8-.3 1.9-1.1 3-2.8 3.6l-.2.1v3.4s0 .1.1.1h1.7v4c-.1 3.1 2.2 4.7 6.3 4.7zm3.2-1.6c-.5.5-1.6.9-2.6.9h-.1c-3.4 0-4.3-2.6-4.3-4.1v-4.7s0-.1-.1-.1h-1.6s-.1 0-.1-.1v-2.1c1.7-.7 2.7-2 3-4.1 0-.1.1-.1.1-.1h2.2s.1 0 .1.1v3.7s0 .1.1.1h2.7s.1 0 .1.1v2.4s0 .1-.1.1h-2.7s-.1 0-.1.1v4.4c0 1 .5 1.5 1.4 1.5.4 0 .8-.1 1.2-.2h.1l.7 2.1z"/><path class="st4" d="M6.7 11.9h1.9v-1s0-.1-.1-.1h-1.8v1.1z"/></g></svg>