<svg xmlns="http://www.w3.org/2000/svg" width="23" height="23" viewBox="0 0 23 23"><style>.st0{fill:#55acee}.st1{fill:#fff}</style><g id="Twitter"><path class="st0" d="M21 23h-19c-1.1 0-2-.9-2-2v-19c0-1.1.9-2 2-2h19c1.1 0 2 .9 2 2v19c0 1.1-.9 2-2 2z"/><path class="st1" d="M20.5 6.5c-.6.3-1.3.5-2 .5.7-.4 1.3-1.1 1.5-1.9-.7.4-1.4.7-2.2.8-.6-.7-1.5-1.1-2.5-1.1-1.9 0-3.4 1.5-3.4 3.4 0 .3 0 .5.1.8-2.9-.1-5.4-1.4-7.1-3.5-.3.5-.5 1.1-.5 1.7 0 1.2.6 2.3 1.6 2.9-.6 0-1.1-.2-1.6-.4 0 1.7 1.2 3.1 2.8 3.4-.3.1-.6.1-.9.1-.2 0-.4 0-.6-.1.4 1.4 1.7 2.4 3.2 2.4-1.2.9-2.7 1.5-4.3 1.5h-.8c1.5 1 3.3 1.5 5.3 1.5 6.3 0 9.8-5.2 9.8-9.8v-.4c.5-.5 1.1-1.1 1.6-1.8z"/></g></svg>