<svg xmlns="http://www.w3.org/2000/svg" width="23" height="23" viewBox="0 0 23 23"><style>.st0{fill:#f3f5f6}.st1{fill:#0063dc}.st2{fill:#ff0084}</style><g id="Flickr"><path class="st0" d="M21 23h-19c-1.1 0-2-.9-2-2v-19c0-1.1.9-2 2-2h19c1.1 0 2 .9 2 2v19c0 1.1-.9 2-2 2z"/><path class="st1" d="M10.7 11.5c0 2.1-1.7 3.9-3.9 3.9-2.1 0-3.9-1.7-3.9-3.9 0-2.1 1.7-3.9 3.9-3.9s3.9 1.7 3.9 3.9z"/><path class="st2" d="M20 11.5c0 2.1-1.7 3.9-3.9 3.9-2.1 0-3.9-1.7-3.9-3.9 0-2.1 1.7-3.9 3.9-3.9s3.9 1.7 3.9 3.9z"/></g></svg>