<svg xmlns="http://www.w3.org/2000/svg" width="23" height="23" viewBox="0 0 23 23"><style type="text/css">.st0{fill:url(#SVGID_1_);} .st1{fill:url(#SVGID_2_);} .st2{fill:#FFFFFF;}</style><radialGradient id="SVGID_1_" cx="6.52" cy=".98" r="22.66" gradientTransform="matrix(1 0 0 -1 .01 24)" gradientUnits="userSpaceOnUse"><stop offset="0" stop-color="#fd5"/><stop offset=".1" stop-color="#fd5"/><stop offset=".5" stop-color="#FF543E"/><stop offset="1" stop-color="#C837AB"/></radialGradient><path class="st0" d="M23 0v23-1.8c-.1 1-1 1.8-2 1.8h-19c-1.1 0-2-.9-2-2v-19c0-1.1.9-2 2-2h19c1 0 1.9.7 2 1.7v-1.7z"/><radialGradient id="SVGID_2_" cx="-355.912" cy="190.672" r="12.88" gradientTransform="matrix(-.174 -.985 -2.462 .434 407.549 -433.774)" gradientUnits="userSpaceOnUse"><stop offset="0" stop-color="#3771C8"/><stop offset=".13" stop-color="#3771C8"/><stop offset="1" stop-color="#60f" stop-opacity="0"/></radialGradient><path class="st1" d="M23 1.7v19.5c-.1 1-1 1.7-2 1.8h-19c-1.1 0-2-.9-2-2v-19c0-1.1.9-2 2-2h19c1 0 1.8.8 2 1.7z"/><path class="st2" d="M11.5 7.1c-2.4 0-4.4 1.9-4.4 4.3s1.9 4.4 4.3 4.4 4.4-1.9 4.4-4.3c.1-2.4-1.9-4.4-4.3-4.4zm0 7.2c-1.6 0-2.8-1.3-2.8-2.8 0-1.6 1.3-2.8 2.8-2.8 1.6 0 2.8 1.3 2.8 2.8 0 1.5-1.2 2.8-2.8 2.8zm4.5-8.4c-.6 0-1 .4-1 1s.4 1 1 1 1-.4 1-1-.4-1-1-1zm0 0c-.6 0-1 .4-1 1s.4 1 1 1 1-.4 1-1-.4-1-1-1zm-4.5 1.2c-2.4 0-4.4 1.9-4.4 4.3s1.9 4.4 4.3 4.4 4.4-1.9 4.4-4.3c.1-2.4-1.9-4.4-4.3-4.4zm0 7.2c-1.6 0-2.8-1.3-2.8-2.8 0-1.6 1.3-2.8 2.8-2.8 1.6 0 2.8 1.3 2.8 2.8 0 1.5-1.2 2.8-2.8 2.8zm0-7.2c-2.4 0-4.4 1.9-4.4 4.3s1.9 4.4 4.3 4.4 4.4-1.9 4.4-4.3c.1-2.4-1.9-4.4-4.3-4.4zm0 7.2c-1.6 0-2.8-1.3-2.8-2.8 0-1.6 1.3-2.8 2.8-2.8 1.6 0 2.8 1.3 2.8 2.8 0 1.5-1.2 2.8-2.8 2.8zm4.5-8.4c-.6 0-1 .4-1 1s.4 1 1 1 1-.4 1-1-.4-1-1-1zm0 0c-.6 0-1 .4-1 1s.4 1 1 1 1-.4 1-1-.4-1-1-1zm-4.5 1.2c-2.4 0-4.4 1.9-4.4 4.3s1.9 4.4 4.3 4.4 4.4-1.9 4.4-4.3c.1-2.4-1.9-4.4-4.3-4.4zm0 7.2c-1.6 0-2.8-1.3-2.8-2.8 0-1.6 1.3-2.8 2.8-2.8 1.6 0 2.8 1.3 2.8 2.8 0 1.5-1.2 2.8-2.8 2.8zm8.4-6.3c0-.7-.1-1.4-.4-2.1-.2-.6-.6-1.1-1-1.5-.4-.4-.9-.8-1.5-1-.6-.2-1.3-.4-2-.4h-3.5s-2.6 0-3.5.1c-.7 0-1.4.1-2 .3-1.1.4-2 1.3-2.5 2.5-.3.7-.4 1.4-.4 2.1-.1.9-.1 1.2-.1 3.5v3.5c0 .7.2 1.4.4 2 .2.6.6 1.1 1 1.5.4.4.9.8 1.5 1 .7.3 1.3.4 2.1.4h7c.7 0 1.4-.1 2-.4 1.2-.4 2.1-1.4 2.5-2.5.2-.6.4-1.3.4-2 0-.9.1-1.2.1-3.5s0-2.6-.1-3.5zm-1.5 6.9c0 .5-.1 1.1-.3 1.6-.1.4-.4.7-.6 1-.3.3-.6.5-1 .6-.5.2-1 .3-1.6.3h-6.8c-.5 0-1.1-.1-1.6-.3-.7-.3-1.3-.9-1.6-1.6-.2-.5-.3-1-.3-1.6v-6.8c0-.5.1-1.1.3-1.6.3-.8.9-1.4 1.6-1.6.5-.2 1-.3 1.6-.3h6.9c.5 0 1.1.1 1.6.3.4.1.7.3 1 .6.3.3.5.6.6 1 .2.5.3 1 .3 1.6v3.4s-.1 2.5-.1 3.4zm-2.4-9c-.6 0-1 .4-1 1s.4 1 1 1 1-.4 1-1-.4-1-1-1zm-4.5 1.2c-2.4 0-4.4 1.9-4.4 4.3s1.9 4.4 4.3 4.4 4.4-1.9 4.4-4.3c.1-2.4-1.9-4.4-4.3-4.4zm0 7.2c-1.6 0-2.8-1.3-2.8-2.8 0-1.6 1.3-2.8 2.8-2.8 1.6 0 2.8 1.3 2.8 2.8 0 1.5-1.2 2.8-2.8 2.8zm0-7.2c-2.4 0-4.4 1.9-4.4 4.3s1.9 4.4 4.3 4.4 4.4-1.9 4.4-4.3c.1-2.4-1.9-4.4-4.3-4.4zm0 7.2c-1.6 0-2.8-1.3-2.8-2.8 0-1.6 1.3-2.8 2.8-2.8 1.6 0 2.8 1.3 2.8 2.8 0 1.5-1.2 2.8-2.8 2.8zm4.5-8.4c-.6 0-1 .4-1 1s.4 1 1 1 1-.4 1-1-.4-1-1-1zm0 0c-.6 0-1 .4-1 1s.4 1 1 1 1-.4 1-1-.4-1-1-1zm-4.5 1.2c-2.4 0-4.4 1.9-4.4 4.3s1.9 4.4 4.3 4.4 4.4-1.9 4.4-4.3c.1-2.4-1.9-4.4-4.3-4.4zm0 7.2c-1.6 0-2.8-1.3-2.8-2.8 0-1.6 1.3-2.8 2.8-2.8 1.6 0 2.8 1.3 2.8 2.8 0 1.5-1.2 2.8-2.8 2.8zm0-7.2c-2.4 0-4.4 1.9-4.4 4.3s1.9 4.4 4.3 4.4 4.4-1.9 4.4-4.3c.1-2.4-1.9-4.4-4.3-4.4zm0 7.2c-1.6 0-2.8-1.3-2.8-2.8 0-1.6 1.3-2.8 2.8-2.8 1.6 0 2.8 1.3 2.8 2.8 0 1.5-1.2 2.8-2.8 2.8zm4.5-8.4c-.6 0-1 .4-1 1s.4 1 1 1 1-.4 1-1-.4-1-1-1zm0 0c-.6 0-1 .4-1 1s.4 1 1 1 1-.4 1-1-.4-1-1-1zm-4.5 1.2c-2.4 0-4.4 1.9-4.4 4.3s1.9 4.4 4.3 4.4 4.4-1.9 4.4-4.3c.1-2.4-1.9-4.4-4.3-4.4zm0 7.2c-1.6 0-2.8-1.3-2.8-2.8 0-1.6 1.3-2.8 2.8-2.8 1.6 0 2.8 1.3 2.8 2.8 0 1.5-1.2 2.8-2.8 2.8z"/></svg>